<?xml version="1.0" encoding="UTF-8"?>
<svg id="Layer_1" data-name="Layer 1" xmlns="http://www.w3.org/2000/svg" viewBox="0 0 328.07 224.85">
  <defs>
    <style>
      .cls-1 {
        fill: #fff;
      }
    </style>
  </defs>
  <path class="cls-1" d="M223.21,201.49c26.01-9.76,41.95-19.7,48.92-30.67-3.07,1.77-5.59,3.21-8.1,4.67-31.48,18.22-65.18,27.77-101.76,26.11-25.25-1.15-49.57-6.94-73.24-15.43-10.76-3.86-21.19-8.65-31.77-13.02-.64-.27-1.3-.49-2.08-.46,12.15,15.27,28.52,23.93,46.85,29.88-5.83,7.29-11.4,14.32-17.09,21.24-.57,.7-1.94,1.06-2.93,1.04-23.04-.44-44.44-6.6-63.01-20.35C4.33,193.63-1.44,178.2,.3,160.09c3.01-31.3,9.73-61.83,21.48-91C38.79,26.87,70.22,3.59,115.82,.01c1.9-.15,3.91,.93,5.49,2.17-12.2,4.37-24.55,8.37-36.56,13.23-12.15,4.92-23.42,11.58-33.46,20.25C125.1,2.86,198.68,3.11,272.08,36.81c-4.86-7.16-31.18-20.12-65.89-32.4,1.6-3.07,3.87-4.43,7.45-4.09,44.33,4.19,75.39,26.76,92.36,67.82,11.82,28.6,18.74,58.59,21.76,89.39,1.95,19.85-5.54,35.82-22.09,46.86-18.47,12.31-39.1,18.38-61.32,19.04-2.38,.07-3.92-.63-5.38-2.48-5.08-6.43-10.3-12.74-15.77-19.46Zm20.19-73.02c-.02-16.22-13.15-30.01-28.64-30.07-15.47-.06-28.97,13.94-28.84,29.89,.14,16.17,13.48,29.96,28.91,29.86,15.43-.09,28.59-13.76,28.57-29.69Zm-160.26-.49c-.03,16.23,12.98,30.02,28.48,30.18,15.32,.16,28.99-13.88,28.99-29.78,0-16.04-13.42-30-28.79-29.98-15.4,.02-28.64,13.68-28.68,29.58Z"/>
</svg>